@startuml
title Arquitectura de SC ISBE

skinparam class {
    BackgroundColor White
    ArrowColor Black
    BorderColor Black
}
skinparam linetype polyline
hide empty members

' === CORE ===
package "Core" {

  ' --- DID and VRelationShip---
    class DidDocumentDetailedInternal <<(A,#228b22) abstract contract>> #9370DB
    class VRelationshipsInternal <<(A,#228b22) abstract contract>> #9370DB

    DidDocumentDetailedInternal --|> Common
    DidDocumentDetailedInternal --|> VRelationshipsInternal 
    VRelationshipsInternal--|> ISBEContext

}

' === ERC721 ===
package "ERC721" {
    class IERC721 <<(I,#FFD700) interface>> #FFFFE0
    class IERC721Metadata <<(I,#FFD700) interface>> #FFFFE0
    class IERC721Isbe <<(I,#FFD700) interface>> #FFFFE0  
    class ERC721Internal <<(A,#228B22) abstract contract>> #FFFFE0
    class ERC721InternalCommon <<(A,#228B22) abstract contract>> #FFFFE0
    class ERC721 <<(A,#228B22) contract>> #FFFFE0
    class ERC721Facet <<(C,#1E90FF) contract>> #FFFFE0

    ERC721 --|> IERC721Isbe
    IERC721Isbe--|> IERC721
    IERC721Isbe--|> IERC721Metadata
    ERC721 --|> ERC721InternalCommon
    ERC721Internal --|> DidDocumentDetailedInternal 
    ERC721Facet --|> ERC721

    class IERC721Burnable <<(I,#FFD700) interface>> #FFFFE0
    class ERC721Burnable <<(A,#228B22) contract>> #FFFFE0
    class ERC721BurnableFacet <<(C,#1E90FF) contract>> #FFFFE0

    ERC721BurnableFacet --|> ERC721Burnable
    ERC721Burnable --|> IERC721Burnable
    ERC721Burnable --|> ERC721InternalCommon

    class IERC721Controller <<(I,#FFD700) interface>> #FFFFE0
    class ERC721Controller <<(A,#228B22) contract>> #FFFFE0
    class ERC721ControllerFacet <<(C,#1E90FF) contract>> #FFFFE0

    ERC721ControllerFacet --|> ERC721Controller
    ERC721Controller --|> IERC721Controller
    ERC721Controller --|> ERC721InternalCommon

    class IERC721Capped <<(I,#FFD700) interface>> #FFFFE0
    class ERC721CappedInternal <<(A,#228B22) abstract contract>> #FFFFE0
    class ERC721Capped <<(A,#228B22) abstract contract>> #FFFFE0
    class ERC721CappedFacet <<(C,#1E90FF) contract>> #FFFFE0
 
    ERC721CappedFacet --|> ERC721Capped
    ERC721Capped --|> IERC721Capped
    ERC721Capped --|> ERC721InternalCommon
    ERC721InternalCommon --|> ERC721CappedInternal
    ERC721CappedInternal --|> ERC721Internal

    class IERC721Snapshot <<(I,#FFD700) interface>> #FFFFE0
    class ERC721SnapshotInternal <<(A,#228B22) abstract contract>> #FFFFE0
    class ERC721Snapshot <<(A,#228B22) abstract contract>> #FFFFE0
    class ERC721SnapshotFacet <<(C,#1E90FF) contract>> #FFFFE0
    
    ERC721SnapshotFacet --|> ERC721Snapshot
    ERC721Snapshot --|> IERC721Snapshot
    ERC721Snapshot --|> ERC721InternalCommon
    ERC721InternalCommon --|> ERC721SnapshotInternal
    ERC721SnapshotInternal --|> ERC721Internal

    class IERC721Enumerable <<(I,#FFD700) interface>> #FFFFE0
    class ERC721EnumerableInternal <<(A,#228B22) abstract contract>> #FFFFE0
    class ERC721Enumerable <<(A,#228B22) abstract contract>> #FFFFE0
    class ERC721EnumerableFacet <<(C,#1E90FF) contract>> #FFFFE0

    ERC721EnumerableFacet --|> ERC721Enumerable
    ERC721Enumerable --|> IERC721Enumerable
    ERC721Enumerable --|> ERC721InternalCommon
    ERC721InternalCommon --|> ERC721EnumerableInternal
    ERC721EnumerableInternal --|> ERC721Internal

    class IERC721Royalty <<(I,#FFD700) interface>> #FFFFE0
    class ERC721RoyaltyInternal <<(A,#228B22) abstract contract>> #FFFFE0
    class ERC721Royalty <<(A,#228B22) abstract contract>> #FFFFE0
    class ERC721RoyaltyFacet <<(C,#1E90FF) contract>> #FFFFE0
    
    ERC721RoyaltyFacet --|> ERC721Royalty
    ERC721Royalty --|> IERC721Royalty
    ERC721Royalty --|> ERC721InternalCommon
    ERC721InternalCommon --|> ERC721RoyaltyInternal
    ERC721RoyaltyInternal --|> ERC721Internal

    class IERC721Consecutive <<(I,#FFD700) interface>> #FFFFE0
    class ERC721ConsecutiveInternal <<(A,#228B22) abstract contract>> #FFFFE0
    class ERC721Consecutive <<(A,#228B22) abstract contract>> #FFFFE0
    class ERC721ConsecutiveFacet <<(C,#1E90FF) contract>> #FFFFE0

    ERC721ConsecutiveFacet --|> ERC721Consecutive
    ERC721Consecutive --|> IERC721Consecutive
    ERC721Consecutive --|> ERC721InternalCommon
    ERC721InternalCommon --|> ERC721ConsecutiveInternal
    ERC721ConsecutiveInternal --|> ERC721Internal

}
@enduml